<svg version="1.1" xmlns:xlink="http://www.w3.org/1999/xlink" xmlns="http://www.w3.org/2000/svg" width="209" height="395" viewbox="0 0 209 395"><defs><style type="text/css">.c{fill:none;stroke:#222222;}.i{fill:#000000;font-family:Verdana,Sans-serif;font-size:12px;}.l{fill:#90d9ff;stroke:#222222;}.r{fill:#d3f0ff;stroke:#222222;}</style></defs><path class="c" d="M0 22h25m98 0h81m-189 25q0 5 5 5h5m126 0h38q5 0 5-5m-179 30q0 5 5 5h5m69 0h95q5 0 5-5m-179 30q0 5 5 5h5m71 0h93q5 0 5-5m-179 30q0 5 5 5h5m25 0h10m89 0h10m25 0h5q5 0 5-5m-179 30q0 5 5 5h5m39 0h125q5 0 5-5m-179 30q0 5 5 5h5m44 0h120q5 0 5-5m-179 30q0 5 5 5h5m43 0h121q5 0 5-5m-179 30q0 5 5 5h5m94 0h70q5 0 5-5m-179 30q0 5 5 5h5m41 0h123q5 0 5-5m-179 30q0 5 5 5h5m45 0h119q5 0 5-5m-179 30q0 5 5 5h5m71 0h93q5 0 5-5m-184-325q5 0 5 5v350q0 5 5 5h5m110 0h54q5 0 5-5v-350q0-5 5-5m5 0h5"/><a xlink:href="#IfExpression"><rect class="r" x="25" y="5" width="98" height="25"/><text class="i" x="35" y="22">IfExpression</text></a><a xlink:href="#MatchExpression"><rect class="r" x="25" y="35" width="126" height="25"/><text class="i" x="35" y="52">MatchExpression</text></a><a xlink:href="#Number"><rect class="r" x="25" y="65" width="69" height="25"/><text class="i" x="35" y="82">Number</text></a><a xlink:href="#Variable"><rect class="r" x="25" y="95" width="71" height="25"/><text class="i" x="35" y="112">Variable</text></a><rect class="l" x="25" y="125" width="25" height="25" rx="7"/><text class="i" x="35" y="142">(</text><a xlink:href="#Expression"><rect class="r" x="60" y="125" width="89" height="25"/><text class="i" x="70" y="142">Expression</text></a><rect class="l" x="159" y="125" width="25" height="25" rx="7"/><text class="i" x="169" y="142">)</text><a xlink:href="#Sin"><rect class="r" x="25" y="155" width="39" height="25"/><text class="i" x="35" y="172">Sin</text></a><a xlink:href="#Cos"><rect class="r" x="25" y="185" width="44" height="25"/><text class="i" x="35" y="202">Cos</text></a><a xlink:href="#Tan"><rect class="r" x="25" y="215" width="43" height="25"/><text class="i" x="35" y="232">Tan</text></a><a xlink:href="#SquareRoot"><rect class="r" x="25" y="245" width="94" height="25"/><text class="i" x="35" y="262">SquareRoot</text></a><a xlink:href="#Min"><rect class="r" x="25" y="275" width="41" height="25"/><text class="i" x="35" y="292">Min</text></a><a xlink:href="#Max"><rect class="r" x="25" y="305" width="45" height="25"/><text class="i" x="35" y="322">Max</text></a><a xlink:href="#Random"><rect class="r" x="25" y="335" width="71" height="25"/><text class="i" x="35" y="352">Random</text></a><a xlink:href="#FactorOfString"><rect class="r" x="25" y="365" width="110" height="25"/><text class="i" x="35" y="382">FactorOfString</text></a></svg>
